<svg xmlns="http://www.w3.org/2000/svg" version="1.1" xmlns:xlink="http://www.w3.org/1999/xlink" width="32" height="32"><svg xmlns="http://www.w3.org/2000/svg" version="1.1" xmlns:xlink="http://www.w3.org/1999/xlink" width="32" height="32"><svg viewBox="0 0 32 32" fill="none" xmlns="http://www.w3.org/2000/svg"><rect width="32" height="32" rx="8" fill="#f97316"></rect><svg x="6" y="6" width="20" height="20" viewBox="0 0 24 24" stroke="#fff" stroke-width="2" stroke-linecap="round" stroke-linejoin="round"><path d="M16 2l-2.3 2.3a3 3 0 000 4.2l1.8 1.8a3 3 0 004.2 0L22 8m-7 7L3.3 3.3a4.2 4.2 0 000 6l7.3 7.3c.7.7 2 .7 2.8 0L15 15zm0 0l7 7m-19.9-.2l6.4-6.3M19 5l-7 7"></path></svg></svg></svg><style>@media (prefers-color-scheme: light) { :root { filter: none; } }
@media (prefers-color-scheme: dark) { :root { filter: none; } }
</style></svg>